#!OML:ASF X:\für Bonn\!DataBase\2005_08_10_Bjorn_Final\c3d\bjorn.ASF
:FULLY-SPECIFIED
:DEGREES
375
root 14.3213 19.2758 -0.228722 -426.856 88.0726 -431.794
lowerback -0.221248 0.0547256 -3.43656
upperback 5.69578 0.462781 -2.33438
thorax 6.03467 0.185499 -0.472462
lowerneck -2.51028 0.38648 6.01634
upperneck 18.0008 1.45755 -6.16411
head 5.9094 0.831636 -2.86135
rclavicle 2.38542e-015 -1.43125e-014
rhumerus -35.1418 -16.3058 -83.7871
rradius 30.6029
rwrist -0.870132
rhand -8.75954 6.43323
rfingers 7.12502
rthumb 17.1779 -22.8275
lclavicle 2.38542e-015 -1.43125e-014
lhumerus -19.6839 -9.3994 87.0752
lradius 30.6248
lwrist -18.7465
lhand -0.977856 -0.860443
lfingers 7.12502
lthumb 24.6534 27.5716
rfemur -21.7361 -3.42352 15.569
rtibia 55.7829
rfoot -4.61749 13.3936
rtoes -11.7666
lfemur -5.87437 16.2417 -16.6605
ltibia 23.7406
lfoot -17.5037 -15.6949
ltoes -8.0267
376
root 14.3688 19.2785 -0.231461 -429.05 88.0321 -433.996
lowerback -0.0514589 -0.0124952 -3.30781
upperback 5.76567 0.363477 -2.30295
thorax 6.01251 0.142898 -0.517418
lowerneck -2.60635 0.435696 6.08318
upperneck 17.814 1.49946 -6.1989
head 5.87088 0.847478 -2.8795
rclavicle 2.78299e-015 1.27222e-014
rhumerus -35.4666 -15.541 -84.3427
rradius 31.7199
rwrist -1.80794
rhand -9.73416 7.23478
rfingers 7.12502
rthumb 16.2396 -22.1051
lclavicle 2.78299e-015 1.27222e-014
lhumerus -19.9353 -9.81857 87.2573
lradius 31.7984
lwrist -16.5301
lhand -2.61225 -1.17204
lfingers 7.12502
lthumb 23.0861 27.465
rfemur -22.7826 -3.82085 15.9396
rtibia 55.8596
rfoot -5.00211 14.2385
rtoes -13.369
lfemur -5.57012 16.5238 -16.5149
ltibia 23.4318
lfoot -17.4386 -16.0686
ltoes -7.95061
377
root 14.418 19.2767 -0.234474 -431.451 87.9929 -436.404
lowerback 0.106414 -0.100911 -3.21513
upperback 5.82957 0.234327 -2.22523
thorax 5.99074 0.081859 -0.495292
lowerneck -2.66169 0.493843 6.05406
upperneck 17.6254 1.56407 -6.22551
head 5.82561 0.869945 -2.87748
rclavicle -2.38542e-015 1.59028e-015
rhumerus -35.784 -14.8098 -84.7632
rradius 32.719
rwrist -2.46393
rhand -10.6139 7.94682
rfingers 7.12502
rthumb 15.3924 -21.4602
lclavicle -2.38542e-015 1.59028e-015
lhumerus -20.1679 -9.98309 87.4687
lradius 32.9169
lwrist -14.3207
lhand -4.26591 -1.71669
lfingers 7.12502
lthumb 21.4986 27.1103
rfemur -23.779 -4.19871 16.3133
rtibia 55.7488
rfoot -5.34571 15.026
rtoes -14.3801
lfemur -5.25984 16.8053 -16.3644
ltibia 23.1303
lfoot -17.3837 -16.4404
ltoes -7.97519
378
root 14.4686 19.2731 -0.237883 -433.796 87.9469 -438.755
lowerback 0.28497 -0.183866 -3.08663
upperback 5.88108 0.110363 -2.15425
thorax 5.94364 0.0256173 -0.499321
lowerneck -2.7066 0.548719 6.04616
upperneck 17.4443 1.62683 -6.2691
head 5.78099 0.892349 -2.88468
rclavicle 0 -1.11319e-014
rhumerus -36.1163 -14.1275 -85.1639
rradius 33.6651
rwrist -2.99318
rhand -11.5334 8.52442
rfingers 7.12502
rthumb 14.5066 -20.9484
lclavicle 0 -1.11319e-014
lhumerus -20.3907 -10.1432 87.6772
lradius 33.9703
lwrist -12.2756
lhand -6.09323 -2.35275
lfingers 7.12502
lthumb 19.7427 26.6646
rfemur -24.7296 -4.57317 16.6864
rtibia 55.4694
rfoot -5.60961 15.846
rtoes -14.6473
lfemur -4.97267 16.9973 -16.2203
ltibia 22.8912
lfoot -17.3448 -16.7393
ltoes -7.84193
379
root 14.5209 19.2678 -0.241297 -435.949 87.8552 -440.913
lowerback 0.458146 -0.266161 -2.90777
upperback 5.93298 -0.0142256 -2.07266
thorax 5.89951 -0.0289118 -0.520042
lowerneck -2.75145 0.604777 6.00882
upperneck 17.268 1.68633 -6.26573
head 5.73743 0.914575 -2.87217
rclavicle 8.74653e-015 3.65764e-014
rhumerus -36.4185 -13.5945 -85.5035
rradius 34.4794
rwrist -3.32813
rhand -12.4003 9.09712
rfingers 7.12502
rthumb 13.6712 -20.4339
lclavicle 8.74653e-015 3.65764e-014
lhumerus -20.6129 -10.3198 87.8978
lradius 35.0316
lwrist -10.3704
lhand -7.96462 -2.91109
lfingers 7.12502
lthumb 17.9429 26.2812
rfemur -25.6134 -4.8755 17.0924
rtibia 55.0253
rfoot -5.70226 16.6508
rtoes -14.1945
lfemur -4.70269 17.2574 -16.0197
ltibia 22.6994
lfoot -17.3633 -17.0766
ltoes -7.82951
380
root 14.5748 19.2597 -0.244847 -438.011 87.802 -442.99
lowerback 0.626359 -0.331905 -2.74859
upperback 5.96362 -0.115185 -2.01165
thorax 5.83527 -0.0719989 -0.549488
lowerneck -2.76978 0.632689 6.02948
upperneck 17.1396 1.71396 -6.29387
head 5.70265 0.924561 -2.88185
rclavicle -1.98785e-015 -8.74653e-015
rhumerus -36.7598 -13.1493 -85.7958
rradius 35.2248
rwrist -3.57103
rhand -13.2136 9.62901
rfingers 7.12502
rthumb 12.8873 -19.9531
lclavicle -1.98785e-015 -8.74653e-015
lhumerus -20.8385 -10.5366 88.1217
lradius 36.0284
lwrist -8.48345
lhand -9.83619 -3.54889
lfingers 7.12502
lthumb 16.1414 25.799
rfemur -26.425 -5.15747 17.4331
rtibia 54.4357
rfoot -5.82463 17.4618
rtoes -13.5698
lfemur -4.45118 17.4783 -15.8713
ltibia 22.5428
lfoot -17.4287 -17.3617
ltoes -7.96297
381
root 14.6316 19.2492 -0.248739 -439.922 87.7446 -444.925
lowerback 0.769929 -0.409404 -2.59934
upperback 5.98986 -0.231674 -1.93102
thorax 5.78056 -0.124282 -0.553448
lowerneck -2.77614 0.674335 6.00129
upperneck 16.9793 1.7575 -6.28973
head 5.65651 0.941188 -2.87183
rclavicle -7.55382e-015 -1.74931e-014
rhumerus -37.0616 -12.7308 -86.0264
rradius 35.8184
rwrist -3.70443
rhand -13.9109 10.058
rfingers 7.12502
rthumb 12.215 -19.5653
lclavicle -7.55382e-015 -1.74931e-014
lhumerus -21.0571 -10.7436 88.3657
lradius 36.971
lwrist -6.62952
lhand -11.6793 -4.12781
lfingers 7.12502
lthumb 14.366 25.3551
rfemur -27.1792 -5.36501 17.7439
rtibia 53.6982
rfoot -6.12809 18.2501
rtoes -12.7683
lfemur -4.22956 17.6188 -15.7302
ltibia 22.4397
lfoot -17.4606 -17.6124
ltoes -7.70498
382
root 14.6913 19.2387 -0.252379 -441.155 87.68 -446.204
lowerback 0.880167 -0.470993 -2.43694
upperback 6.01361 -0.324562 -1.86877
thorax 5.74172 -0.163809 -0.582776
lowerneck -2.79978 0.700907 6.06181
upperneck 16.8485 1.78158 -6.33322
head 5.62217 0.950751 -2.89331
rclavicle 7.95139e-016 1.59028e-015
rhumerus -37.3501 -12.4727 -86.2207
rradius 36.3463
rwrist -3.55883
rhand -14.4007 10.2933
rfingers 7.12502
rthumb 11.7427 -19.3576
lclavicle 7.95139e-016 1.59028e-015
lhumerus -21.2394 -10.9933 88.5809
lradius 37.8746
lwrist -4.73744
lhand -13.4091 -4.67871
lfingers 7.12502
lthumb 12.6988 24.9152
rfemur -27.9211 -5.51324 18.0335
rtibia 52.8166
rfoot -6.51366 18.9348
rtoes -12.3703
lfemur -4.02939 17.8216 -15.5839
ltibia 22.3557
lfoot -17.5289 -17.8965
ltoes -7.56871
383
root 14.7518 19.2219 -0.255892 -442.565 87.6169 -447.65
lowerback 1.02842 -0.530252 -2.30333
upperback 6.00886 -0.418449 -1.76988
thorax 5.65121 -0.20652 -0.557147
lowerneck -2.80771 0.724768 6.04345
upperneck 16.7612 1.81102 -6.3574
head 5.59827 0.960665 -2.89545
rclavicle 5.1684e-015 1.74931e-014
rhumerus -37.6828 -12.1176 -86.339
rradius 36.8147
rwrist -3.48819
rhand -14.7059 10.3189
rfingers 7.12502
rthumb 11.4484 -19.3485
lclavicle 5.1684e-015 1.74931e-014
lhumerus -21.4637 -11.2093 88.8701
lradius 38.7717
lwrist -2.869
lhand -15.0255 -5.12815
lfingers 7.12502
lthumb 11.1402 24.5561
rfemur -28.6245 -5.59138 18.3024
rtibia 51.8256
rfoot -6.84623 19.5058
rtoes -11.3634
lfemur -3.81606 17.9831 -15.4344
ltibia 22.2787
lfoot -17.5773 -18.1814
ltoes -7.29132
384
root 14.8161 19.2097 -0.258847 -443.729 87.5358 -448.84
lowerback 1.15778 -0.578839 -2.13819
upperback 6.00795 -0.49605 -1.69102
thorax 5.57495 -0.239047 -0.569233
lowerneck -2.79614 0.735508 6.14687
upperneck 16.699 1.82441 -6.4371
head 5.57894 0.967434 -2.93696
rclavicle -4.77083e-015 4.77083e-015
rhumerus -38.0082 -11.8593 -86.4796
rradius 37.2088
rwrist -3.40156
rhand -14.9627 10.2842
rfingers 7.12502
rthumb 11.2007 -19.3968
lclavicle -4.77083e-015 4.77083e-015
lhumerus -21.6705 -11.3997 89.1315
lradius 39.587
lwrist -1.16742
lhand -16.5855 -5.54902
lfingers 7.12502
lthumb 9.63531 24.2106
rfemur -29.2524 -5.65184 18.5698
rtibia 50.712
rfoot -6.97374 20.0104
rtoes -9.19146
lfemur -3.54843 18.0497 -15.272
ltibia 22.1498
lfoot -17.6054 -18.3541
ltoes -6.99156
385
root 14.8817 19.198 -0.261965 -445.069 87.4566 -450.198
lowerback 1.31433 -0.642409 -2.00452
upperback 5.99581 -0.595535 -1.58017
thorax 5.47204 -0.285074 -0.530689
lowerneck -2.80057 0.763356 6.14096
upperneck 16.6762 1.86132 -6.44552
head 5.5751 0.983789 -2.93634
rclavicle 4.77083e-015 1.74931e-014
rhumerus -38.321 -11.5729 -86.5605
rradius 37.5252
rwrist -3.31914
rhand -15.0816 10.2027
rfingers 7.12502
rthumb 11.0861 -19.4845
lclavicle 4.77083e-015 1.74931e-014
lhumerus -21.8991 -11.5139 89.4016
lradius 40.3963
lwrist 0.371077
lhand -17.9903 -5.94055
lfingers 7.12502
lthumb 8.27973 23.8772
rfemur -29.8398 -5.66975 18.8086
rtibia 49.5188
rfoot -7.12792 20.4569
rtoes -7.59413
lfemur -3.23626 18.0531 -15.1199
ltibia 21.9644
lfoot -17.6962 -18.3998
ltoes -7.04471
386
root 14.9513 19.1903 -0.264065 -446.056 87.3756 -451.191
lowerback 1.44681 -0.696054 -1.87974
upperback 5.9954 -0.67969 -1.46351
thorax 5.39553 -0.324154 -0.480761
lowerneck -2.7638 0.780736 6.12434
upperneck 16.6217 1.88575 -6.45558
head 5.55335 0.994011 -2.93495
rclavicle 7.15625e-015 1.35174e-014
rhumerus -38.6212 -11.4215 -86.5745
rradius 37.7566
rwrist -3.12502
rhand -15.1509 10.1453
rfingers 7.12502
rthumb 11.0192 -19.5455
lclavicle 7.15625e-015 1.35174e-014
lhumerus -22.0686 -11.521 89.6678
lradius 41.1004
lwrist 1.59898
lhand -19.2289 -6.38795
lfingers 7.12502
lthumb 7.0842 23.4735
rfemur -30.3696 -5.61908 19.0192
rtibia 48.2289
rfoot -7.4382 20.862
rtoes -6.48912
lfemur -2.83195 17.8587 -14.9845
ltibia 21.6618
lfoot -17.7683 -18.258
ltoes -6.90309
387
root 15.0238 19.1856 -0.265898 -447.484 87.295 -452.639
lowerback 1.55441 -0.757031 -1.75526
upperback 5.9863 -0.772959 -1.34738
thorax 5.32421 -0.367995 -0.431516
lowerneck -2.6849 0.794928 6.12701
upperneck 16.5409 1.90828 -6.48475
head 5.5163 1.00403 -2.94288
rclavicle 1.23246e-014 1.59028e-014
rhumerus -38.9007 -11.3042 -86.5743
rradius 37.8651
rwrist -2.89115
rhand -15.153 10.163
rfingers 7.12502
rthumb 11.0172 -19.5279
lclavicle 1.23246e-014 1.59028e-014
lhumerus -22.2393 -11.5213 89.8929
lradius 41.7535
lwrist 2.53268
lhand -20.2731 -6.83817
lfingers 7.12502
lthumb 6.07613 23.0547
rfemur -30.8735 -5.5845 19.2151
rtibia 46.8708
rfoot -7.80309 21.2132
rtoes -5.94047
lfemur -2.39179 17.6962 -14.8501
ltibia 21.2612
lfoot -17.7716 -18.1177
ltoes -6.82036
388
root 15.0981 19.1817 -0.26734 -449.049 87.2335 -454.217
lowerback 1.6666 -0.817008 -1.65761
upperback 5.97517 -0.864155 -1.2269
thorax 5.24881 -0.412182 -0.362418
lowerneck -2.62485 0.813733 6.12726
upperneck 16.5057 1.93871 -6.50726
head 5.49715 1.01839 -2.94821
rclavicle -4.37326e-015 0
rhumerus -39.19 -11.2045 -86.5393
rradius 37.9764
rwrist -2.73948
rhand -15.0705 10.1183
rfingers 7.12502
rthumb 11.0967 -19.5683
lclavicle -4.37326e-015 0
lhumerus -22.3665 -11.427 90.1113
lradius 42.3063
lwrist 3.06422
lhand -21.0593 -7.23204
lfingers 7.12502
lthumb 5.31707 22.6813
rfemur -31.3203 -5.51695 19.3604
rtibia 45.4518
rfoot -8.08805 21.5511
rtoes -5.01928
lfemur -1.86527 17.4822 -14.7345
ltibia 20.7208
lfoot -17.692 -17.9904
ltoes -6.60803
